<svg xmlns="http://www.w3.org/2000/svg" version="1.1" xmlns:xlink="http://www.w3.org/1999/xlink" xmlns:svgjs="http://svgjs.dev/svgjs" width="1000" height="1000" viewBox="0 0 1000 1000"><rect width="1000" height="1000" fill="#000000"></rect><g transform="matrix(0.7,0,0,0.7,149.57575757575756,428.4349666427162)"><svg viewBox="0 0 396 81" data-background-color="#051726" preserveAspectRatio="xMidYMid meet" height="204" width="1000" xmlns="http://www.w3.org/2000/svg" xmlns:xlink="http://www.w3.org/1999/xlink"><defs></defs><g id="tight-bounds" transform="matrix(1,0,0,1,0.2400000000000091,0.09361135812321209)"><svg viewBox="0 0 395.52 80.81277728375358" height="80.81277728375358" width="395.52"><g><svg viewBox="0 0 550.5146489716701 112.48133525179854" height="80.81277728375358" width="395.52"><g><rect width="4.580049846618914" height="112.48133525179854" x="138.4249398407085" y="0" fill="#ffffff" opacity="1" stroke-width="0" stroke="transparent" fill-opacity="1" class="rect-o-0" data-fill-palette-color="primary" rx="1%" id="o-0" data-palette-color="#ffffff"></rect></g><g transform="matrix(1,0,0,1,154.99464897167013,0.27980431654675897)"><svg viewBox="0 0 395.52 111.92172661870502" height="111.92172661870502" width="395.52"><g><svg viewBox="0 0 395.52 111.92172661870502" height="111.92172661870502" width="395.52"><g><svg viewBox="0 0 395.52 111.92172661870502" height="111.92172661870502" width="395.52"><g transform="matrix(1,0,0,1,0,0)"><svg width="395.52" viewBox="4 -29.399999618530273 229.35000610351562 61.85000228881836" height="111.92172661870502" data-palette-color="#ffffff"><svg></svg><svg></svg><g class="undefined-text-0" data-fill-palette-color="primary" id="text-0"><path d="M14.05 0h-9.55v-25.4l-0.5-4h12.1l8.8 17.5 9-17.5h11.45v29.4h-9.55v-16.85h-0.55l-2.1 5.4-3.65 8.45h-9.1l-3.8-8.45-2.05-5.4h-0.5zM77.6 0h-14.6c-3.533 0-6.107-0.793-7.72-2.38-1.62-1.58-2.43-4.103-2.43-7.57v0-9.55c0-3.4 0.8-5.9 2.4-7.5 1.6-1.6 4.183-2.4 7.75-2.4v0h14.6c3.5 0 6.06 0.8 7.68 2.4 1.613 1.6 2.42 4.1 2.42 7.5v0 9.55c0 3.467-0.817 5.99-2.45 7.57-1.633 1.587-4.183 2.38-7.65 2.38zM66.45-6.8v0h7.75c2.6 0 3.9-1.183 3.9-3.55v0-8.75c0-2.333-1.3-3.5-3.9-3.5v0h-7.75c-1.333 0-2.333 0.267-3 0.8-0.667 0.533-1 1.433-1 2.7v0 8.75c0 1.233 0.333 2.133 1 2.7 0.667 0.567 1.667 0.85 3 0.85zM105.3 0h-9.6v-25.4l-0.5-4h9.2l14.1 14.3 1.95 2.2h0.55v-16.5h9.6v29.4h-8.35l-14.5-14.45-1.95-2.35h-0.5zM162.85 0h-14.6c-3.533 0-6.107-0.793-7.72-2.38-1.62-1.58-2.43-4.103-2.43-7.57v0-9.55c0-3.4 0.8-5.9 2.4-7.5 1.6-1.6 4.183-2.4 7.75-2.4v0h14.6c3.5 0 6.06 0.8 7.68 2.4 1.613 1.6 2.42 4.1 2.42 7.5v0 9.55c0 3.467-0.817 5.99-2.45 7.57-1.633 1.587-4.183 2.38-7.65 2.38zM151.7-6.8v0h7.75c2.6 0 3.9-1.183 3.9-3.55v0-8.75c0-2.333-1.3-3.5-3.9-3.5v0h-7.75c-1.333 0-2.333 0.267-3 0.8-0.667 0.533-1 1.433-1 2.7v0 8.75c0 1.233 0.333 2.133 1 2.7 0.667 0.567 1.667 0.85 3 0.85zM190.05 0h-9.6v-29.4h9.6zM221.25 0h-22.7v-25.4l-0.5-4h23.2c4.033 0 7.06 0.8 9.08 2.4 2.013 1.6 3.02 4.1 3.02 7.5v0 9.55c0 3.467-1 5.99-3 7.57-2 1.587-5.033 2.38-9.1 2.38zM208.3-22.6v15.7h11.45c2.567 0 3.867-1.183 3.9-3.55v0-8.65c0-0.967-0.283-1.793-0.85-2.48-0.567-0.68-1.583-1.02-3.05-1.02v0z" data-fill-palette-color="primary" fill="#ffffff" opacity="1"></path><path d="M28.8 32.45h-24.8l0.5-4v-25.4h9.6v22.55h17.7l3 6.3c0 0.133-0.45 0.257-1.35 0.37-0.9 0.12-2.45 0.18-4.65 0.18zM45.7 32.45h-10.5l14.65-29.4h13l14.6 29.4h-10.75l-2.45-5.35h-15.8zM56.1 9.55l-4.9 10.65h10.25l-4.85-10.65zM106.65 32.45h-24.8v-29.45h22.8c3.133 0 5.417 0.623 6.85 1.87 1.433 1.253 2.15 2.763 2.15 4.53v0 1.5c0 1.367-0.29 2.49-0.87 3.37-0.587 0.887-1.213 1.513-1.88 1.88v0c1.467 0.467 2.633 1.273 3.5 2.42 0.867 1.153 1.3 2.663 1.3 4.53v0 0.9c0 1-0.117 2-0.35 3-0.233 1-0.673 1.907-1.32 2.72-0.653 0.82-1.57 1.48-2.75 1.98-1.187 0.5-2.73 0.75-4.63 0.75zM91.6 9.85v4.5h10c0.867 0 1.467-0.183 1.8-0.55 0.333-0.367 0.5-0.867 0.5-1.5v0-0.5c0-0.7-0.167-1.2-0.5-1.5-0.333-0.3-1.083-0.45-2.25-0.45v0zM91.6 20.7v4.9h12.05c0.867 0 1.467-0.16 1.8-0.48 0.333-0.313 0.5-0.82 0.5-1.52v0-0.9c0-0.633-0.217-1.127-0.65-1.48-0.433-0.347-1.183-0.52-2.25-0.52v0zM146.9 32.45h-18.55c-2.267 0-3.933-0.1-5-0.3-1.067-0.2-1.6-0.433-1.6-0.7v0l3-6.45c0.767 0.133 2.35 0.257 4.75 0.37 2.4 0.12 5.517 0.18 9.35 0.18v0h3.95c1.167 0 1.95-0.167 2.35-0.5 0.4-0.333 0.6-0.817 0.6-1.45v0-0.5c0-0.8-0.2-1.35-0.6-1.65-0.4-0.3-1.183-0.45-2.35-0.45v0h-11.45c-3.367 0-5.817-0.627-7.35-1.88-1.533-1.247-2.3-3.287-2.3-6.12v0-1.8c0-1.467 0.277-2.817 0.83-4.05 0.547-1.233 1.487-2.227 2.82-2.98 1.333-0.747 3.167-1.12 5.5-1.12v0h16.6c2.033 0 3.727 0.117 5.08 0.35 1.347 0.233 2.02 0.483 2.02 0.75v0l-1.5 6.2c-0.933-0.1-2.69-0.21-5.27-0.33-2.587-0.113-5.863-0.17-9.83-0.17v0l-3.6-0.05c-1.033 0-1.767 0.14-2.2 0.42-0.433 0.287-0.667 0.813-0.7 1.58v0 0.35c0 0.767 0.233 1.3 0.7 1.6 0.467 0.3 1.217 0.45 2.25 0.45v0h11c2.133 0 3.95 0.217 5.45 0.65 1.5 0.433 2.65 1.223 3.45 2.37 0.8 1.153 1.2 2.847 1.2 5.08v0 1.8c0 2.5-0.64 4.517-1.92 6.05-1.287 1.533-3.513 2.3-6.68 2.3z" data-fill-palette-color="primary" fill="#ffffff" opacity="1"></path></g></svg></g></svg></g></svg></g></svg></g><g transform="matrix(1,0,0,1,0,0.27980431654675897)"><svg viewBox="0 0 126.4352805563658 111.92172661870502" height="111.92172661870502" width="126.4352805563658"><g><svg xmlns="http://www.w3.org/2000/svg" xmlns:xlink="http://www.w3.org/1999/xlink" version="1.1" x="0" y="0" viewBox="4.699999809265137 10 90.60000610351562 80.19999694824219" enable-background="new 0 0 100 100" xml:space="preserve" height="111.92172661870502" width="126.4352805563658" class="icon-icon-0" data-fill-palette-color="accent" id="icon-0"><path d="M20.2 44L4.7 54V34L20.2 44zM38.1 10h-13v66h13V10zM56.3 10h-13v66h13V10zM79.8 34v20l15.5-10L79.8 34zM74.6 10h-13v66h13V10zM82 66.2v16H18v-16h-8v16 8h8 64 8v-8-16H82z" fill="#ffffff" data-fill-palette-color="accent"></path></svg></g></svg></g></svg></g></svg><rect width="395.52" height="80.81277728375358" fill="none" stroke="none" visibility="hidden"></rect></g></svg></g></svg>